HIERARCHY
ROOT Hips
{
	OFFSET 0.000000 35.082581 0.000000
	CHANNELS 6 Xposition Yposition Zposition Xrotation Yrotation Zrotation 
	JOINT Spine
	{
		OFFSET 0.000000 6.876099 0.125700
		CHANNELS 3 Xrotation Yrotation Zrotation
		JOINT Spine1
		{
			OFFSET 0.000000 5.730043 0.104720
			CHANNELS 3 Xrotation Yrotation Zrotation
			JOINT Spine1_split
			{
				OFFSET 0.000000 5.730043 0.104720
				CHANNELS 3 Xrotation Yrotation Zrotation
				JOINT Spine2
				{
					OFFSET 0.000000 5.730043 0.104720
					CHANNELS 3 Xrotation Yrotation Zrotation
					JOINT Neck
					{
						OFFSET 0.000000 10.314075 0.188496
						CHANNELS 3 Xrotation Yrotation Zrotation
						JOINT Head
						{
							OFFSET 0.000000 7.643700 -2.377400
							CHANNELS 3 Xrotation Yrotation Zrotation
							JOINT HeadTop_End
							{
								OFFSET 0.000000 43.788605 -13.619600
								CHANNELS 3 Xrotation Yrotation Zrotation
								End Site
								{
									OFFSET 0.000000 0.000000 0.000000
								}
							}
						}
					}
					JOINT LeftShoulder
					{
						OFFSET 2.196100 4.412489 0.087492
						CHANNELS 3 Xrotation Yrotation Zrotation
						JOINT LeftShoulder_split
						{
							OFFSET 2.196100 4.412489 0.087492
							CHANNELS 3 Xrotation Yrotation Zrotation
							JOINT LeftArm
							{
								OFFSET 8.771219 -2.981674 -0.026999
								CHANNELS 3 Xrotation Yrotation Zrotation
								JOINT LeftForeArm
								{
									OFFSET 8.512804 0.000000 -0.000000
									CHANNELS 3 Xrotation Yrotation Zrotation
									JOINT LeftHand
									{
										OFFSET 18.484802 0.000000 -0.000000
										CHANNELS 3 Xrotation Yrotation Zrotation
										JOINT LeftHandThumb1
										{
											OFFSET 2.499420 -1.158070 2.653252
											CHANNELS 3 Xrotation Yrotation Zrotation
											JOINT LeftHandThumb2
											{
												OFFSET 2.370079 -1.368366 1.368366
												CHANNELS 3 Xrotation Yrotation Zrotation
												JOINT LeftHandThumb3
												{
													OFFSET 2.676727 -1.545410 1.545409
													CHANNELS 3 Xrotation Yrotation Zrotation
													JOINT LeftHandThumb4
													{
														OFFSET 1.692226 -0.977005 0.977007
														CHANNELS 3 Xrotation Yrotation Zrotation
														End Site
														{
															OFFSET 0.000000 0.000000 0.000000
														}
													}
												}
											}
										}
										JOINT LeftHandIndex1
										{
											OFFSET 7.924831 -0.457527 2.345128
											CHANNELS 3 Xrotation Yrotation Zrotation
											JOINT LeftHandIndex2
											{
												OFFSET 3.643303 0.000000 0.000000
												CHANNELS 3 Xrotation Yrotation Zrotation
												JOINT LeftHandIndex3
												{
													OFFSET 3.810799 0.000000 0.000000
													CHANNELS 3 Xrotation Yrotation Zrotation
													JOINT LeftHandIndex4
													{
														OFFSET 2.403702 0.000000 0.000000
														CHANNELS 3 Xrotation Yrotation Zrotation
														End Site
														{
															OFFSET 0.000000 0.000000 0.000000
														}
													}
												}
											}
										}
										JOINT LeftHandMiddle1
										{
											OFFSET 8.563995 0.000000 -0.000000
											CHANNELS 3 Xrotation Yrotation Zrotation
											JOINT LeftHandMiddle2
											{
												OFFSET 3.861618 0.000000 0.000000
												CHANNELS 3 Xrotation Yrotation Zrotation
												JOINT LeftHandMiddle3
												{
													OFFSET 3.701603 0.000000 0.000000
													CHANNELS 3 Xrotation Yrotation Zrotation
													JOINT LeftHandMiddle4
													{
														OFFSET 2.322544 0.000000 0.000000
														CHANNELS 3 Xrotation Yrotation Zrotation
														End Site
														{
															OFFSET 0.000000 0.000000 0.000000
														}
													}
												}
											}
										}
										JOINT LeftHandRing1
										{
											OFFSET 8.426460 -0.424637 -3.286992
											CHANNELS 3 Xrotation Yrotation Zrotation
											JOINT LeftHandRing2
											{
												OFFSET 3.126408 0.000000 0.000000
												CHANNELS 3 Xrotation Yrotation Zrotation
												JOINT LeftHandRing3
												{
													OFFSET 3.085026 0.000000 0.000000
													CHANNELS 3 Xrotation Yrotation Zrotation
													JOINT LeftHandRing4
													{
														OFFSET 1.644005 0.000000 0.000000
														CHANNELS 3 Xrotation Yrotation Zrotation
														End Site
														{
															OFFSET 0.000000 0.000000 0.000000
														}
													}
												}
											}
										}
									}
								}
							}
						}
					}
					JOINT RightShoulder
					{
						OFFSET -2.196100 4.412496 0.070690
						CHANNELS 3 Xrotation Yrotation Zrotation
						JOINT RightShoulder_split
						{
							OFFSET -2.196100 4.412496 0.070690
							CHANNELS 3 Xrotation Yrotation Zrotation
							JOINT RightArm
							{
								OFFSET -8.771282 -2.981682 -0.094208
								CHANNELS 3 Xrotation Yrotation Zrotation
								JOINT RightForeArm
								{
									OFFSET -8.494598 0.000000 0.000000
									CHANNELS 3 Xrotation Yrotation Zrotation
									JOINT RightHand
									{
										OFFSET -18.483803 0.000000 0.000001
										CHANNELS 3 Xrotation Yrotation Zrotation
										JOINT RightHandThumb1
										{
											OFFSET -2.527351 -1.008072 2.575253
											CHANNELS 3 Xrotation Yrotation Zrotation
											JOINT RightHandThumb2
											{
												OFFSET -2.321518 -1.340328 1.340329
												CHANNELS 3 Xrotation Yrotation Zrotation
												JOINT RightHandThumb3
												{
													OFFSET -2.657753 -1.534454 1.534455
													CHANNELS 3 Xrotation Yrotation Zrotation
													JOINT RightHandThumb4
													{
														OFFSET -1.807510 -1.043568 1.043567
														CHANNELS 3 Xrotation Yrotation Zrotation
														End Site
														{
															OFFSET 0.000000 0.000000 0.000000
														}
													}
												}
											}
										}
										JOINT RightHandIndex1
										{
											OFFSET -8.811420 0.015533 2.887987
											CHANNELS 3 Xrotation Yrotation Zrotation
											JOINT RightHandIndex2
											{
												OFFSET -3.537502 0.000000 0.000000
												CHANNELS 3 Xrotation Yrotation Zrotation
												JOINT RightHandIndex3
												{
													OFFSET -3.356201 0.000000 0.000000
													CHANNELS 3 Xrotation Yrotation Zrotation
													JOINT RightHandIndex4
													{
														OFFSET -1.933098 0.000000 0.000000
														CHANNELS 3 Xrotation Yrotation Zrotation
														End Site
														{
															OFFSET 0.000000 0.000000 0.000000
														}
													}
												}
											}
										}
										JOINT RightHandMiddle1
										{
											OFFSET -8.178135 0.000000 0.000000
											CHANNELS 3 Xrotation Yrotation Zrotation
											JOINT RightHandMiddle2
											{
												OFFSET -3.901302 0.000000 0.000000
												CHANNELS 3 Xrotation Yrotation Zrotation
												JOINT RightHandMiddle3
												{
													OFFSET -3.909599 0.000000 0.000000
													CHANNELS 3 Xrotation Yrotation Zrotation
													JOINT RightHandMiddle4
													{
														OFFSET -2.376003 0.000000 0.000000
														CHANNELS 3 Xrotation Yrotation Zrotation
														End Site
														{
															OFFSET 0.000000 0.000000 0.000000
														}
													}
												}
											}
										}
										JOINT RightHandRing1
										{
											OFFSET -7.559013 0.014137 -2.865403
											CHANNELS 3 Xrotation Yrotation Zrotation
											JOINT RightHandRing2
											{
												OFFSET -3.449306 0.000000 0.000000
												CHANNELS 3 Xrotation Yrotation Zrotation
												JOINT RightHandRing3
												{
													OFFSET -3.362106 0.000000 0.000000
													CHANNELS 3 Xrotation Yrotation Zrotation
													JOINT RightHandRing4
													{
														OFFSET -2.076401 0.000000 0.000000
														CHANNELS 3 Xrotation Yrotation Zrotation
														End Site
														{
															OFFSET 0.000000 0.000000 0.000000
														}
													}
												}
											}
										}
									}
								}
							}
						}
					}
				}
			}
		}
	}
	JOINT LeftUpLeg
	{
		OFFSET 10.205400 -3.823500 0.155100
		CHANNELS 3 Xrotation Yrotation Zrotation
		JOINT LeftLeg
		{
			OFFSET 0.708757 -12.982077 0.567790
			CHANNELS 3 Xrotation Yrotation Zrotation
			JOINT LeftFoot
			{
				OFFSET -0.708756 -10.717838 -2.184338
				CHANNELS 3 Xrotation Yrotation Zrotation
				JOINT LeftToeBase
				{
					OFFSET 0.108149 -7.191104 7.560241
					CHANNELS 3 Xrotation Yrotation Zrotation
					JOINT LeftToe_End
					{
						OFFSET 0.070230 0.081724 4.490308
						CHANNELS 3 Xrotation Yrotation Zrotation
						End Site
						{
							OFFSET 0.000000 0.000000 0.000000
						}
					}
				}
			}
		}
	}
	JOINT RightUpLeg
	{
		OFFSET -10.205400 -3.823500 0.005500
		CHANNELS 3 Xrotation Yrotation Zrotation
		JOINT RightLeg
		{
			OFFSET -0.708756 -12.982134 0.610632
			CHANNELS 3 Xrotation Yrotation Zrotation
			JOINT RightFoot
			{
				OFFSET 0.708754 -10.717769 -1.945823
				CHANNELS 3 Xrotation Yrotation Zrotation
				JOINT RightToeBase
				{
					OFFSET -0.108140 -7.191069 7.372968
					CHANNELS 3 Xrotation Yrotation Zrotation
					JOINT RightToe_End
					{
						OFFSET -0.070227 0.081735 4.479403
						CHANNELS 3 Xrotation Yrotation Zrotation
						End Site
						{
							OFFSET 0.000000 0.000000 0.000000
						}
					}
				}
			}
		}
	}
}
MOTION
Frames: 6
Frame Time: 0.016667
3.269385 31.949360 -7.769493 12.689780 9.101080 -1.161465 4.503995 -1.089910 0.544677 1.564959 -2.658698 2.901395 0.000000 0.000000 0.000000 1.574391 -2.667812 2.901701 -3.216331 0.566821 2.708977 -15.707439 0.827951 3.034335 -0.000000 0.000000 0.000001 0.124290 -1.541130 2.568711 0.000000 0.000000 0.000000 -46.523871 -11.866262 -46.983915 -0.000021 -112.648158 0.000001 -69.625739 -13.116119 -10.477684 10.871965 24.431607 7.994459 2.368883 5.209907 -0.238693 -7.180104 -0.217048 13.332269 -0.000005 0.000000 0.000001 9.213479 7.430013 -85.046524 5.044719 5.795451 -82.065385 5.234714 5.818624 -83.942724 0.000002 0.000000 0.000000 3.117073 7.733739 -77.810690 3.450905 5.337693 -65.744881 4.253687 5.629518 -74.130379 -0.000003 0.000001 0.000000 2.981566 8.002574 -85.786206 3.085030 5.157973 -61.746071 7.275113 5.675707 -104.109923 -0.000000 0.000003 -0.000003 -1.082574 -10.880356 5.337847 0.000000 0.000000 0.000000 -47.164915 8.617432 48.689577 -0.000024 120.211165 -0.000000 -63.342184 15.367408 21.209040 3.592554 -16.454952 -11.549588 2.790445 -6.737065 -0.669424 -5.037087 -6.511804 -15.212329 0.000001 0.000001 0.000002 -0.566152 0.330629 80.510226 3.774807 -4.572998 79.066775 3.866207 -4.589656 80.210839 -0.000001 0.000000 -0.000000 -2.294814 -4.464790 67.849624 2.486309 -4.121253 62.190273 3.051645 -4.372221 69.813392 -0.000005 0.000001 -0.000001 -2.842466 -5.033182 74.536707 2.011865 -3.834297 55.359042 5.242857 -4.620270 97.232585 -0.000001 -0.000003 -0.000001 -5.475838 14.247329 12.278608 44.147508 -3.395677 1.357290 -4.789326 0.786580 -10.686494 -41.524422 1.230036 -6.138102 0.000001 -0.000002 0.000000 -52.255599 -4.872972 -8.365459 50.626096 -1.649036 3.425358 -5.020244 2.218576 -0.700618 -5.437828 0.005723 -0.093704 0.000000 0.000000 -0.000000 
3.260170 32.334187 -8.149269 14.008305 9.172976 -1.387318 3.829847 -0.816084 0.888399 3.030175 -2.333154 2.316412 0.000000 0.000000 0.000000 3.025689 -2.337049 2.305680 -3.373871 0.744375 1.970034 -20.406064 -0.736912 4.010722 -0.000000 0.000000 0.000001 0.226634 -3.126610 5.972552 0.000000 0.000000 0.000000 -55.645524 -11.976970 -43.754503 -0.000017 -110.514749 -0.000012 -73.310237 -11.632515 -11.828043 10.262778 23.809193 8.306475 2.382970 5.227104 -0.226532 -7.162233 -0.193218 13.353365 -0.000005 -0.000003 -0.000001 8.714090 7.285028 -84.272090 4.989404 5.787502 -81.517147 5.172189 5.811667 -83.325753 0.000001 -0.000003 0.000002 2.612485 7.606781 -77.289376 3.418795 5.323166 -65.399164 4.224943 5.621317 -73.837309 -0.000001 -0.000002 -0.000001 2.429881 7.945396 -85.449362 3.065051 5.147232 -61.523851 7.232179 5.686285 -103.676118 -0.000003 0.000001 -0.000001 -1.787739 -12.486580 1.915340 0.000000 0.000000 0.000000 -57.494135 10.708989 49.479939 -0.000029 115.866509 0.000023 -69.261158 14.057515 21.653305 4.491981 -16.714728 -11.255562 2.794879 -6.734288 -0.676031 -4.984113 -6.626285 -15.268056 -0.000003 0.000001 0.000002 0.329287 0.086575 80.589457 3.789513 -4.575808 79.251211 3.887127 -4.593200 80.472312 -0.000001 0.000000 -0.000000 -1.397291 -4.849264 68.072213 2.481684 -4.118822 62.125823 3.057601 -4.374419 69.891577 0.000003 0.000002 0.000002 -2.514202 -5.055780 73.935104 1.988882 -3.818364 55.014595 5.193806 -4.626208 96.623940 0.000000 -0.000000 0.000001 -13.014627 13.952059 12.214444 47.848023 -5.317742 -0.139785 6.070807 -1.943509 -3.154863 -51.637412 4.276977 -6.011702 0.000000 -0.000002 0.000000 -51.484122 -4.847014 -7.434959 53.021037 -2.100345 3.193348 -5.737443 2.155204 -1.276580 -9.022904 -0.025920 0.460396 0.000000 0.000000 -0.000000 
3.256692 32.647469 -8.512604 14.998783 9.011629 -1.437635 3.402869 -0.617029 1.084306 4.511544 -2.087238 1.761738 0.000000 0.000000 0.000000 4.497378 -2.087712 1.743153 -3.569843 0.950902 1.228296 -24.802200 -2.130055 5.138536 -0.000000 0.000000 -0.000000 0.283909 -4.204910 10.156110 0.000000 0.000000 0.000000 -64.274812 -8.933950 -40.664187 -0.000002 -108.101862 -0.000011 -77.039473 -10.296165 -13.415637 9.409446 23.501773 8.676185 2.397563 5.244808 -0.214003 -7.143697 -0.168690 13.375303 -0.000003 0.000002 -0.000000 8.148796 7.258576 -83.446935 4.952689 5.781937 -81.152701 5.126700 5.806211 -82.876143 0.000000 -0.000001 -0.000001 2.062238 7.456963 -76.699855 3.403267 5.316050 -65.231599 4.213475 5.618013 -73.720288 0.000003 0.000002 0.000001 1.826215 7.873436 -85.043348 3.060738 5.144916 -61.475671 7.205563 5.692681 -103.407459 -0.000000 0.000000 0.000000 -2.697559 -14.467620 -1.739073 0.000000 0.000000 0.000000 -67.851762 8.072146 51.708862 -0.000025 110.708474 -0.000010 -75.665792 13.174090 22.239830 5.568555 -16.817336 -10.745290 2.799342 -6.731142 -0.682832 -4.929038 -6.745471 -15.326070 -0.000000 -0.000004 0.000001 1.693629 -0.297615 81.040638 3.833131 -4.583854 79.797435 3.938463 -4.601498 81.112745 -0.000001 0.000003 0.000000 -0.350493 -5.321326 68.847815 2.503187 -4.130092 62.424924 3.092151 -4.386873 70.343811 0.000000 -0.000001 -0.000001 -2.233208 -5.138381 73.955116 1.991463 -3.820180 55.053415 5.174618 -4.628382 96.385874 -0.000002 -0.000000 0.000001 -21.289220 12.654436 13.636114 60.031605 -6.332359 -0.917553 5.787749 -2.209134 0.624162 -35.647092 7.026171 -8.760157 -0.000001 0.000001 -0.000000 -49.876118 -4.729947 -6.470588 55.842930 -2.815252 2.937168 -7.502742 2.022773 -1.863673 -11.905383 -0.024756 1.261688 -0.000000 -0.000000 -0.000000 
3.202414 32.797607 -8.872465 15.062418 8.641282 -1.173728 4.244186 -0.557735 0.928898 5.525782 -2.007906 1.460071 0.000000 0.000000 0.000000 5.509996 -2.001089 1.443114 -3.821972 1.179405 0.529719 -28.309548 -3.166418 6.680834 -0.000000 -0.000000 0.000000 0.256384 -4.260465 17.532839 0.000000 0.000000 0.000000 -70.525084 -4.093752 -37.545089 -0.000038 -104.831348 -0.000031 -79.041073 -8.916949 -14.856315 8.253706 23.483862 9.167663 2.412678 5.263039 -0.200978 -7.124483 -0.143382 13.398062 -0.000006 -0.000003 -0.000000 7.606496 7.261715 -82.565765 4.989907 5.787565 -81.522119 5.154232 5.809559 -83.148291 0.000002 0.000001 0.000001 1.559654 7.302423 -76.019384 3.452996 5.338607 -65.767120 4.272002 5.634678 -74.317089 0.000001 -0.000000 -0.000000 1.313985 7.794573 -84.538576 3.114015 5.173403 -62.068162 7.241720 5.683963 -103.772355 0.000006 -0.000002 0.000002 -4.311121 -16.380947 -8.167934 0.000000 0.000000 0.000000 -75.846669 5.206710 53.753517 -0.000037 104.624360 -0.000029 -76.793593 12.678076 22.125995 6.396756 -16.596226 -10.143356 2.803940 -6.727512 -0.689997 -4.871934 -6.869332 -15.386195 -0.000000 -0.000000 0.000003 3.111524 -0.689691 81.602975 3.886297 -4.593067 80.461862 3.999532 -4.610599 81.873327 0.000002 -0.000000 0.000000 0.498738 -5.717450 70.203778 2.541287 -4.149726 62.952604 3.142806 -4.404583 71.004693 0.000000 0.000001 -0.000000 -2.066087 -5.239504 74.468207 2.014226 -3.835939 55.394350 5.179221 -4.627864 96.443152 -0.000002 0.000000 -0.000001 -28.064573 11.295228 14.940308 73.756658 -4.915951 -0.772774 2.013214 -2.172251 3.824014 -2.729525 0.895603 -7.790311 -0.000003 -0.000001 -0.000001 -46.807816 -4.415002 -5.598947 57.965821 -3.734686 2.515098 -10.769998 1.752930 -1.937838 -16.446269 0.000109 0.000015 -0.000000 -0.000000 0.000000 
3.106969 32.983253 -9.201692 14.107908 8.444836 -0.410910 7.109818 -0.722374 0.314211 5.499183 -2.144531 1.294730 0.000000 0.000000 0.000000 5.487190 -2.118177 1.288723 -4.114536 1.412794 -0.075730 -30.479688 -3.974670 8.568997 -0.000000 -0.000000 0.000001 -0.047824 -3.401652 23.496177 0.000000 0.000000 0.000000 -73.230146 -0.621004 -33.371191 -0.000045 -100.983240 -0.000019 -80.319910 -8.274428 -16.186145 7.032792 23.137167 9.720852 2.428339 5.281802 -0.187490 -7.104631 -0.117200 13.421619 -0.000005 -0.000001 -0.000002 7.118925 7.242943 -81.661735 5.074000 5.799441 -82.355231 5.227021 5.817806 -83.866971 0.000001 -0.000002 -0.000001 1.169039 7.164611 -75.336495 3.541005 5.377197 -66.709495 4.370958 5.661402 -75.322629 0.000002 0.000000 0.000000 1.014463 7.733133 -84.094204 3.191402 5.213508 -62.923125 7.301990 5.668923 -104.381895 -0.000001 -0.000001 0.000000 -6.651295 -17.950350 -17.593604 0.000000 0.000000 0.000000 -79.412909 -0.555363 55.127112 0.000044 99.664030 -0.000074 -76.458722 12.875910 21.568486 6.773125 -16.178225 -9.582715 2.808658 -6.723669 -0.697332 -4.812699 -6.997810 -15.448520 0.000004 -0.000002 0.000003 4.230492 -0.977366 82.008094 3.927705 -4.599802 80.978764 4.048104 -4.617249 82.477089 -0.000000 0.000000 0.000000 0.932793 -5.931340 71.542741 2.580418 -4.169406 63.491943 3.192444 -4.421317 71.649927 0.000000 0.000001 -0.000000 -2.003115 -5.329799 75.175685 2.045203 -3.857091 55.856119 5.193035 -4.626307 96.614221 -0.000001 -0.000001 -0.000002 -32.441169 10.282709 15.599903 85.094424 -2.020897 -0.050129 -1.562685 -2.133085 6.107720 3.953365 0.000008 -0.000004 0.000001 -0.000001 0.000001 -42.571685 -4.249674 -5.312764 57.482210 -4.286998 2.122435 -14.275096 1.588584 -2.147206 -20.207287 0.000130 0.000025 0.000000 -0.000000 -0.000000 
2.990414 33.234455 -9.487554 12.530643 8.586782 0.824482 11.178434 -1.156134 -0.980226 4.641891 -2.434681 1.215398 0.000000 0.000000 0.000000 4.643794 -2.376271 1.240035 -4.441271 1.638402 -0.538824 -29.274385 -4.578420 11.198305 0.000000 0.000000 0.000000 -0.549386 -2.146087 27.837039 0.000000 0.000000 0.000000 -72.667141 1.178756 -29.946688 -0.000012 -97.423988 0.000003 -81.172277 -8.131443 -17.179107 6.060436 22.397246 10.147878 2.444565 5.301264 -0.173499 -7.084011 -0.090016 13.446052 -0.000002 -0.000002 -0.000000 6.664178 7.194885 -80.732631 5.144617 5.808419 -83.053427 5.285125 5.823721 -84.439791 0.000001 0.000003 -0.000002 0.881704 7.047507 -74.684881 3.610267 5.406356 -67.446813 4.449471 5.681275 -76.117110 0.000002 -0.000000 0.000000 0.893018 7.694356 -83.750673 3.238870 5.237404 -63.444166 7.326630 5.662565 -104.631477 -0.000001 -0.000001 0.000001 -8.667469 -18.781792 -25.118354 0.000000 0.000000 0.000000 -79.985784 -4.358377 54.700506 0.000051 95.308152 -0.000128 -75.999774 13.590441 20.612756 6.827826 -15.671712 -9.166415 2.813516 -6.719710 -0.704924 -4.751453 -7.131068 -15.513030 0.000002 -0.000002 0.000003 4.864364 -1.105482 82.088396 3.942327 -4.602100 81.160932 4.068572 -4.619895 82.731261 -0.000001 -0.000001 0.000000 0.983813 -5.979043 72.244653 2.606000 -4.182018 63.843240 3.226033 -4.432301 72.085209 0.000004 0.000001 0.000001 -1.977692 -5.394441 75.738998 2.070838 -3.874303 56.236349 5.199111 -4.625591 96.689606 0.000001 0.000002 0.000001 -35.253229 9.889931 15.417086 93.062256 0.506203 0.842456 -3.575181 -1.031258 7.933627 4.144454 0.000001 -0.000000 -0.000000 -0.000002 -0.000000 -38.098454 -4.511720 -5.710820 54.939590 -4.586677 1.788074 -17.703463 1.927562 -2.989822 -17.468368 0.000118 0.000018 -0.000000 -0.000000 0.000001 
